<svg width="85" height="28" viewBox="0 0 85 28" fill="none" xmlns="http://www.w3.org/2000/svg">
<path d="M2.376 22C2.2 22 2.056 21.944 1.944 21.832C1.832 21.72 1.776 21.576 1.776 21.4V5.8C1.776 5.624 1.832 5.48 1.944 5.368C2.056 5.256 2.2 5.2 2.376 5.2H5.04C5.216 5.2 5.36 5.256 5.472 5.368C5.584 5.48 5.64 5.624 5.64 5.8V18.784H13.08C13.256 18.784 13.4 18.84 13.512 18.952C13.624 19.064 13.68 19.208 13.68 19.384V21.4C13.68 21.576 13.624 21.72 13.512 21.832C13.4 21.944 13.256 22 13.08 22H2.376Z" fill="#7A46DB"/>
<path d="M40.344 26.56C40.184 26.56 40.048 26.504 39.936 26.392C39.824 26.28 39.768 26.136 39.768 25.96V20.584C39.384 21.096 38.888 21.504 38.28 21.808C37.688 22.096 36.984 22.24 36.168 22.24C35.352 22.24 34.632 22.104 34.008 21.832C33.384 21.56 32.856 21.176 32.424 20.68C31.992 20.184 31.664 19.592 31.44 18.904C31.216 18.216 31.088 17.464 31.056 16.648C31.04 16.328 31.032 16.032 31.032 15.76C31.032 15.488 31.04 15.2 31.056 14.896C31.088 14.032 31.216 13.256 31.44 12.568C31.68 11.88 32.008 11.296 32.424 10.816C32.856 10.32 33.384 9.944 34.008 9.688C34.632 9.416 35.352 9.28 36.168 9.28C37.08 9.28 37.84 9.448 38.448 9.784C39.072 10.104 39.568 10.52 39.936 11.032V10.12C39.936 9.944 39.992 9.8 40.104 9.688C40.216 9.576 40.36 9.52 40.536 9.52H42.816C42.992 9.52 43.136 9.576 43.248 9.688C43.36 9.8 43.416 9.944 43.416 10.12V25.96C43.416 26.136 43.36 26.28 43.248 26.392C43.136 26.504 42.992 26.56 42.816 26.56H40.344ZM37.248 19.36C37.824 19.36 38.288 19.232 38.64 18.976C39.008 18.72 39.28 18.4 39.456 18.016C39.648 17.616 39.752 17.192 39.768 16.744C39.784 16.44 39.792 16.136 39.792 15.832C39.792 15.528 39.784 15.232 39.768 14.944C39.752 14.464 39.656 14.016 39.48 13.6C39.32 13.184 39.056 12.84 38.688 12.568C38.336 12.296 37.856 12.16 37.248 12.16C36.656 12.16 36.176 12.296 35.808 12.568C35.456 12.824 35.2 13.168 35.04 13.6C34.896 14.032 34.808 14.504 34.776 15.016C34.744 15.512 34.744 16.008 34.776 16.504C34.808 17.016 34.896 17.488 35.04 17.92C35.2 18.352 35.456 18.704 35.808 18.976C36.176 19.232 36.656 19.36 37.248 19.36ZM52.2257 22.24C51.2977 22.24 50.4737 22.032 49.7537 21.616C49.0497 21.184 48.4977 20.568 48.0977 19.768C47.7137 18.952 47.5217 17.968 47.5217 16.816V10.12C47.5217 9.944 47.5777 9.8 47.6897 9.688C47.8017 9.576 47.9377 9.52 48.0977 9.52H50.6417C50.8177 9.52 50.9617 9.576 51.0737 9.688C51.1857 9.8 51.2417 9.944 51.2417 10.12V16.672C51.2417 18.464 52.0257 19.36 53.5937 19.36C54.3457 19.36 54.9377 19.128 55.3697 18.664C55.8177 18.184 56.0417 17.52 56.0417 16.672V10.12C56.0417 9.944 56.0977 9.8 56.2097 9.688C56.3217 9.576 56.4657 9.52 56.6417 9.52H59.1857C59.3457 9.52 59.4817 9.576 59.5937 9.688C59.7057 9.8 59.7617 9.944 59.7617 10.12V21.4C59.7617 21.576 59.7057 21.72 59.5937 21.832C59.4817 21.944 59.3457 22 59.1857 22H56.8337C56.6577 22 56.5137 21.944 56.4017 21.832C56.2897 21.72 56.2337 21.576 56.2337 21.4V20.464C55.8177 21.04 55.2817 21.48 54.6257 21.784C53.9697 22.088 53.1697 22.24 52.2257 22.24ZM69.5503 22.24C67.7103 22.24 66.2463 21.728 65.1583 20.704C64.0863 19.68 63.5183 18.192 63.4543 16.24C63.4543 16.112 63.4543 15.944 63.4543 15.736C63.4543 15.512 63.4543 15.336 63.4543 15.208C63.5183 13.976 63.7983 12.92 64.2943 12.04C64.7903 11.144 65.4863 10.464 66.3823 10C67.2783 9.52 68.3263 9.28 69.5263 9.28C70.8703 9.28 71.9903 9.56 72.8863 10.12C73.7983 10.664 74.4783 11.416 74.9263 12.376C75.3903 13.32 75.6223 14.408 75.6223 15.64V16.192C75.6223 16.352 75.5583 16.488 75.4303 16.6C75.3183 16.712 75.1823 16.768 75.0223 16.768H67.1743C67.1743 16.784 67.1743 16.816 67.1743 16.864C67.1743 16.896 67.1743 16.928 67.1743 16.96C67.1903 17.472 67.2863 17.944 67.4623 18.376C67.6543 18.792 67.9183 19.128 68.2543 19.384C68.6063 19.64 69.0223 19.768 69.5023 19.768C69.9023 19.768 70.2303 19.712 70.4863 19.6C70.7423 19.488 70.9503 19.352 71.1103 19.192C71.2863 19.032 71.4143 18.896 71.4943 18.784C71.6383 18.624 71.7503 18.528 71.8303 18.496C71.9263 18.448 72.0703 18.424 72.2623 18.424H74.7583C74.9183 18.424 75.0463 18.472 75.1423 18.568C75.2543 18.648 75.3023 18.768 75.2863 18.928C75.2703 19.184 75.1343 19.504 74.8783 19.888C74.6383 20.256 74.2783 20.624 73.7983 20.992C73.3183 21.344 72.7183 21.64 71.9983 21.88C71.2943 22.12 70.4783 22.24 69.5503 22.24ZM67.1743 14.584H71.8783V14.536C71.8783 13.96 71.7823 13.464 71.5903 13.048C71.4143 12.616 71.1503 12.28 70.7983 12.04C70.4463 11.8 70.0223 11.68 69.5263 11.68C69.0303 11.68 68.6063 11.8 68.2543 12.04C67.9023 12.28 67.6303 12.616 67.4383 13.048C67.2623 13.464 67.1743 13.96 67.1743 14.536V14.584Z" fill="#7A46DB"/>
<rect x="78" y="9" width="3" height="13" rx="1" fill="#7A46DB"/>
<path d="M81.2677 6.48316C81.7366 5.99057 82 5.32264 82 4.62619C82 3.92975 81.7366 3.26182 81.2677 2.76923C81.0357 2.52537 80.7601 2.33191 80.4568 2.19992C80.1534 2.06794 79.8283 2 79.5 2C79.1717 2 78.8466 2.06794 78.5432 2.19992C78.2399 2.33191 77.9643 2.52537 77.7323 2.76923C77.2634 3.26182 77 3.92975 77 4.62619C77 5.32264 77.2634 5.99057 77.7323 6.48316L78.2754 7.04527L79.005 7.78963L79.0525 7.83388C79.3293 8.06937 79.7346 8.05437 79.9953 7.78963L80.8649 6.9009L81.2677 6.48316ZM79.5 5.75005C79.2159 5.75005 78.9434 5.63152 78.7424 5.42055C78.5415 5.20957 78.4286 4.92343 78.4286 4.62507C78.4286 4.32671 78.5415 4.04057 78.7424 3.82959C78.9434 3.61862 79.2159 3.50009 79.5 3.50009C79.7841 3.50009 80.0566 3.61862 80.2576 3.82959C80.4585 4.04057 80.5714 4.32671 80.5714 4.62507C80.5714 4.92343 80.4585 5.20957 80.2576 5.42055C80.0566 5.63152 79.7841 5.75005 79.5 5.75005Z" fill="#7A46DB"/>
<path d="M22 8.5C17.8645 8.5 14.5 11.8645 14.5 16C14.5 20.1355 17.8645 23.5 22 23.5C26.1355 23.5 29.5 20.1355 29.5 16C29.5 11.8645 26.1355 8.5 22 8.5ZM22 22C18.6918 22 16 19.3082 16 16C16 12.6918 18.6918 10 22 10C25.3082 10 28 12.6918 28 16C28 19.3082 25.3082 22 22 22Z" fill="#7A46DB"/>
<path d="M19 19L23.4932 17.5L25 13L20.5 14.5L19 19Z" fill="#7A46DB"/>
</svg>
