<svg width="29" height="29" viewBox="0 0 29 29" fill="none" xmlns="http://www.w3.org/2000/svg">
<path fill-rule="evenodd" clip-rule="evenodd" d="M0 14.3057C0 10.5116 1.52767 6.87287 4.24695 4.19004C6.96623 1.5072 10.6544 0 14.5 0C18.3456 0 22.0338 1.5072 24.753 4.19004C27.4723 6.87287 29 10.5116 29 14.3057C29 18.0998 27.4723 21.7385 24.753 24.4213C22.0338 27.1042 18.3456 28.6114 14.5 28.6114C10.6544 28.6114 6.96623 27.1042 4.24695 24.4213C1.52767 21.7385 0 18.0998 0 14.3057ZM14.5 2.052C11.206 2.052 8.04687 3.34301 5.71764 5.64102C3.38842 7.93903 2.07987 11.0558 2.07987 14.3057C2.07987 17.5556 3.38842 20.6723 5.71764 22.9703C8.04687 25.2683 11.206 26.5594 14.5 26.5594C17.794 26.5594 20.9531 25.2683 23.2824 22.9703C25.6116 20.6723 26.9201 17.5556 26.9201 14.3057C26.9201 11.0558 25.6116 7.93903 23.2824 5.64102C20.9531 3.34301 17.794 2.052 14.5 2.052ZM13.679 17.5457C13.5586 17.82 11.9429 23.9393 11.9429 23.9393C11.9055 24.0763 11.8411 24.2047 11.7534 24.3172C11.6658 24.4296 11.5565 24.5239 11.4319 24.5947C11.1802 24.7377 10.8812 24.7762 10.6008 24.7018C10.4619 24.6649 10.3318 24.6014 10.2178 24.5149C10.1038 24.4284 10.0082 24.3206 9.93642 24.1976C9.79148 23.9493 9.75246 23.6544 9.82795 23.3777C9.82795 23.3777 11.7546 17.2714 11.7546 15.9689V12.7958L7.46784 11.6618C7.32686 11.6272 7.19428 11.5652 7.07784 11.4794C6.96139 11.3937 6.86342 11.2859 6.78962 11.1625C6.71582 11.039 6.66767 10.9022 6.64799 10.7602C6.6283 10.6182 6.63748 10.4737 6.67497 10.3352C6.71246 10.1967 6.77752 10.067 6.86636 9.95355C6.9552 9.84012 7.06604 9.74527 7.19241 9.67454C7.31879 9.6038 7.45817 9.5586 7.60244 9.54156C7.7467 9.52451 7.89296 9.53598 8.03269 9.57528C8.03269 9.57528 11.6539 10.7914 13.0682 10.7914H15.934C17.3461 10.7914 20.9651 9.57528 20.9651 9.57528C21.2456 9.50081 21.5445 9.5393 21.7962 9.68229C22.0479 9.82529 22.2317 10.0611 22.3072 10.3378C22.3827 10.6145 22.3437 10.9094 22.1987 11.1577C22.0538 11.406 21.8148 11.5874 21.5343 11.6618L17.2301 12.8002V15.9689C17.2301 17.2714 19.1567 23.3712 19.1567 23.3712C19.2319 23.6479 19.1926 23.9427 19.0475 24.1908C18.9023 24.4389 18.6632 24.62 18.3828 24.6942C18.1023 24.7684 17.8035 24.7296 17.552 24.5864C17.3005 24.4432 17.117 24.2073 17.0418 23.9306C17.0418 23.9306 15.4195 17.82 15.3079 17.5457C15.1984 17.2714 14.8284 17.2714 14.8284 17.2714H14.1563C14.1563 17.2714 13.7775 17.2714 13.679 17.5457ZM14.5 9.16488C15.1532 9.16488 15.7797 8.90886 16.2416 8.45315C16.7035 7.99744 16.963 7.37936 16.963 6.73488C16.963 6.0904 16.7035 5.47232 16.2416 5.01661C15.7797 4.5609 15.1532 4.30488 14.5 4.30488C13.8468 4.30488 13.2203 4.5609 12.7584 5.01661C12.2965 5.47232 12.037 6.0904 12.037 6.73488C12.037 7.37936 12.2965 7.99744 12.7584 8.45315C13.2203 8.90886 13.8468 9.16488 14.5 9.16488Z" fill="black"/>
</svg>
