<svg width="186" height="39" viewBox="0 0 186 39" fill="none" xmlns="http://www.w3.org/2000/svg">
<path d="M165.382 4.72607L156.456 15.5956L165 26" stroke="#0043C0" stroke-width="4.3318" stroke-linecap="round"/>
<path d="M165.382 4.72607L156.456 15.5956L165 26" stroke="#0043C0" stroke-width="4.3318" stroke-linecap="round"/>
<path d="M176.925 4.99999L168 15.8695L176.544 26.2739" stroke="#0043C0" stroke-width="4.3318" stroke-linecap="round"/>
<path d="M176.925 4.99999L168 15.8695L176.544 26.2739" stroke="#0043C0" stroke-width="4.3318" stroke-linecap="round"/>
<path d="M15.6915 6.78761V9.80947H9.7864V26H6.26551V9.80947H0.360406V6.78761H15.6915ZM18.3558 26V6.78761H30.6927V9.75403H21.8489V14.4947H29.7224V17.4057H21.8489V23.0336H31.3581V26H18.3558ZM42.4349 26.4159C40.9933 26.4159 39.6996 26.1941 38.5536 25.7505C37.4077 25.3069 36.4374 24.66 35.6427 23.8098C34.8479 22.9412 34.238 21.8877 33.8129 20.6494C33.3878 19.411 33.1753 17.9879 33.1753 16.3799C33.1753 14.772 33.4156 13.3488 33.8961 12.1105C34.3951 10.8722 35.0697 9.82796 35.9199 8.97777C36.7701 8.1091 37.7681 7.45298 38.9141 7.0094C40.06 6.56582 41.289 6.34404 42.6013 6.34404C43.396 6.34404 44.1168 6.40872 44.7637 6.5381C45.4106 6.649 45.9743 6.77837 46.4548 6.92623C46.9354 7.07409 47.3328 7.23119 47.647 7.39753C47.9612 7.56387 48.1829 7.68401 48.3123 7.75793L47.2865 10.6135C46.843 10.3362 46.2053 10.0775 45.3736 9.8372C44.5604 9.57845 43.6733 9.44907 42.7122 9.44907C41.8805 9.44907 41.1042 9.59693 40.3834 9.89264C39.6626 10.1699 39.0342 10.595 38.4982 11.1679C37.9807 11.7409 37.5741 12.4617 37.2784 13.3304C36.9826 14.199 36.8348 15.2063 36.8348 16.3522C36.8348 17.3687 36.9457 18.3021 37.1675 19.1523C37.4077 20.0025 37.7681 20.7418 38.2487 21.3702C38.7292 21.9801 39.3391 22.4606 40.0784 22.8118C40.8177 23.1445 41.7049 23.3108 42.7399 23.3108C43.9782 23.3108 44.9855 23.1907 45.7618 22.9504C46.538 22.6917 47.1387 22.4514 47.5638 22.2296L48.5064 25.0851C48.2846 25.233 47.9796 25.3808 47.5915 25.5287C47.2219 25.6766 46.7783 25.8244 46.2608 25.9723C45.7433 26.1017 45.1611 26.2033 44.5142 26.2772C43.8673 26.3696 43.1742 26.4159 42.4349 26.4159ZM63.4132 6.78761H66.9063V26H63.4132V17.4889H55.0684V26H51.5752V6.78761H55.0684V14.467H63.4132V6.78761ZM75.6878 6.78761C76.0944 7.48994 76.5472 8.34937 77.0462 9.3659C77.5452 10.3824 78.0535 11.4544 78.571 12.5818C79.0885 13.6908 79.5968 14.8274 80.0958 15.9918C80.6133 17.1377 81.0846 18.2005 81.5097 19.18C81.9348 18.2005 82.3968 17.1377 82.8959 15.9918C83.3949 14.8274 83.9032 13.6908 84.4207 12.5818C84.9382 11.4544 85.4464 10.3824 85.9455 9.3659C86.4445 8.34937 86.8973 7.48994 87.3039 6.78761H90.4644C90.6307 8.19227 90.7878 9.68934 90.9357 11.2788C91.0835 12.8498 91.2129 14.467 91.3238 16.1304C91.4532 17.7754 91.5641 19.4388 91.6565 21.1207C91.7674 22.7841 91.8598 24.4105 91.9337 26H88.496C88.4221 23.7636 88.3297 21.4626 88.2188 19.0968C88.1264 16.7311 87.9785 14.4393 87.7752 12.2214C87.5719 12.6465 87.3316 13.1548 87.0544 13.7462C86.7772 14.3376 86.4814 14.9845 86.1672 15.6869C85.853 16.3707 85.5296 17.0823 85.1969 17.8216C84.8827 18.5609 84.5685 19.2817 84.2543 19.984C83.9586 20.6678 83.6814 21.3147 83.4226 21.9246C83.1639 22.5161 82.9421 23.0243 82.7572 23.4494H80.1512C79.9664 23.0243 79.7446 22.5068 79.4859 21.8969C79.2271 21.287 78.9406 20.6401 78.6264 19.9563C78.3307 19.2539 78.0165 18.5331 77.6838 17.7938C77.3696 17.0545 77.0554 16.343 76.7412 15.6591C76.427 14.9753 76.1313 14.3376 75.8541 13.7462C75.5769 13.1363 75.3366 12.628 75.1333 12.2214C74.93 14.4393 74.7729 16.7311 74.662 19.0968C74.5696 21.4626 74.4864 23.7636 74.4125 26H70.9748C71.0487 24.4105 71.1319 22.7656 71.2243 21.0652C71.3352 19.3648 71.4461 17.6829 71.557 16.0195C71.6863 14.3376 71.8249 12.7112 71.9728 11.1402C72.1207 9.5692 72.2778 8.11834 72.4441 6.78761H75.6878ZM108.756 26C108.497 25.2422 108.229 24.4937 107.952 23.7544C107.675 23.0151 107.407 22.2573 107.148 21.4811H99.0528C98.7941 22.2573 98.5261 23.0243 98.2488 23.7821C97.9901 24.5214 97.7313 25.2607 97.4726 26H93.8408C94.5616 23.9485 95.2455 22.054 95.8923 20.3167C96.5392 18.5793 97.1676 16.9344 97.7775 15.3819C98.4059 13.8294 99.0251 12.3508 99.635 10.9461C100.245 9.54148 100.873 8.15531 101.52 6.78761H104.819C105.466 8.15531 106.095 9.54148 106.705 10.9461C107.314 12.3508 107.924 13.8294 108.534 15.3819C109.163 16.9344 109.8 18.5793 110.447 20.3167C111.113 22.054 111.806 23.9485 112.526 26H108.756ZM103.1 10.5026C102.675 11.4821 102.186 12.6742 101.631 14.0789C101.095 15.4836 100.531 17.0083 99.94 18.6533H106.261C105.669 17.0083 105.097 15.4743 104.542 14.0512C103.988 12.628 103.507 11.4452 103.1 10.5026ZM120.25 6.59355C123.022 6.59355 125.139 7.10181 126.599 8.11834C128.077 9.13487 128.817 10.6874 128.817 12.7759C128.817 15.3819 127.532 17.147 124.963 18.0711C125.314 18.4962 125.712 19.0137 126.155 19.6236C126.599 20.2335 127.052 20.8989 127.514 21.6197C127.976 22.322 128.419 23.0521 128.844 23.8098C129.269 24.5491 129.648 25.2792 129.981 26H126.072C125.721 25.3346 125.342 24.6693 124.935 24.0039C124.529 23.3201 124.113 22.6639 123.688 22.0355C123.281 21.3887 122.875 20.788 122.468 20.2335C122.061 19.6606 121.682 19.1523 121.331 18.7087C121.073 18.7272 120.851 18.7364 120.666 18.7364C120.481 18.7364 120.305 18.7364 120.139 18.7364H118.448V26H114.955V7.06485C115.805 6.88002 116.711 6.75989 117.672 6.70444C118.633 6.63051 119.492 6.59355 120.25 6.59355ZM120.5 9.61541C119.76 9.61541 119.076 9.64313 118.448 9.69858V15.9086H119.973C120.823 15.9086 121.572 15.8624 122.218 15.77C122.865 15.6776 123.401 15.5113 123.826 15.271C124.27 15.0307 124.603 14.7073 124.824 14.3007C125.046 13.8941 125.157 13.3766 125.157 12.7482C125.157 12.1567 125.046 11.6577 124.824 11.2511C124.603 10.8445 124.279 10.521 123.854 10.2808C123.447 10.0405 122.958 9.87416 122.385 9.78175C121.812 9.67086 121.183 9.61541 120.5 9.61541ZM144.166 26C143.685 25.2607 143.131 24.4844 142.502 23.6712C141.874 22.858 141.208 22.0725 140.506 21.3147C139.822 20.557 139.111 19.8361 138.371 19.1523C137.632 18.4684 136.902 17.877 136.181 17.378V26H132.688V6.78761H136.181V14.7165C136.791 14.1066 137.429 13.4597 138.094 12.7759C138.76 12.0736 139.416 11.3712 140.063 10.6689C140.728 9.94809 141.356 9.255 141.948 8.58964C142.539 7.92428 143.075 7.3236 143.556 6.78761H147.742C147.132 7.48994 146.485 8.21999 145.801 8.97777C145.118 9.73555 144.415 10.5026 143.694 11.2788C142.974 12.0366 142.244 12.7944 141.504 13.5521C140.783 14.3099 140.072 15.0307 139.369 15.7146C140.146 16.306 140.931 16.9991 141.726 17.7938C142.539 18.5701 143.334 19.411 144.11 20.3167C144.886 21.2038 145.626 22.1372 146.328 23.1168C147.049 24.0778 147.705 25.0389 148.296 26H144.166Z" fill="black"/>
</svg>
