<svg width="29" height="30" viewBox="0 0 29 30" fill="none" xmlns="http://www.w3.org/2000/svg">
<path d="M15 20.6002C16.5913 20.6002 18.1174 19.9973 19.2426 18.9242C20.3679 17.851 21 16.3956 21 14.8779C21 13.3603 20.3679 11.9048 19.2426 10.8317C18.1174 9.75852 16.5913 9.15564 15 9.15564V20.6002Z" fill="black"/>
<path fill-rule="evenodd" clip-rule="evenodd" d="M14.5 0C6.49165 0 0 6.66084 0 14.8779C0 23.095 6.49165 29.7558 14.5 29.7558C22.5084 29.7558 29 23.095 29 14.8779C29 6.66084 22.5084 0 14.5 0ZM14.5 2.97558V8.92674C12.9617 8.92674 11.4865 9.55374 10.3988 10.6698C9.31107 11.7859 8.7 13.2996 8.7 14.8779C8.7 16.4563 9.31107 17.97 10.3988 19.086C11.4865 20.2021 12.9617 20.8291 14.5 20.8291V26.7802C17.5765 26.7802 20.527 25.5262 22.7024 23.2941C24.8779 21.062 26.1 18.0346 26.1 14.8779C26.1 11.7212 24.8779 8.69381 22.7024 6.46169C20.527 4.22957 17.5765 2.97558 14.5 2.97558Z" fill="black"/>
</svg>
