<svg width="36" height="39" viewBox="0 0 36 39" fill="none" xmlns="http://www.w3.org/2000/svg">
<path d="M24.75 14.9941C24.75 16.8877 24.0388 18.7037 22.773 20.0426C21.5071 21.3816 19.7902 22.1338 18 22.1338C16.2098 22.1338 14.4929 21.3816 13.227 20.0426C11.9612 18.7037 11.25 16.8877 11.25 14.9941C11.25 13.1006 11.9612 11.2846 13.227 9.94565C14.4929 8.6067 16.2098 7.85449 18 7.85449C19.7902 7.85449 21.5071 8.6067 22.773 9.94565C24.0388 11.2846 24.75 13.1006 24.75 14.9941Z" fill="white"/>
<path fill-rule="evenodd" clip-rule="evenodd" d="M0 19.7539C0 14.7044 1.89642 9.86178 5.27208 6.29126C8.64773 2.72074 13.2261 0.714844 18 0.714844C22.7739 0.714844 27.3523 2.72074 30.7279 6.29126C34.1036 9.86178 36 14.7044 36 19.7539C36 24.8034 34.1036 29.6461 30.7279 33.2166C27.3523 36.7871 22.7739 38.793 18 38.793C13.2261 38.793 8.64773 36.7871 5.27208 33.2166C1.89642 29.6461 0 24.8034 0 19.7539ZM18 3.09473C15.034 3.0949 12.1283 3.98091 9.61741 5.65079C7.10649 7.32067 5.09239 9.70655 3.80692 12.5338C2.52145 15.3611 2.01687 18.5148 2.35125 21.632C2.68562 24.7492 3.84537 27.7032 5.697 30.154C7.2945 27.4314 10.8112 24.5137 18 24.5137C25.1887 24.5137 28.7033 27.429 30.303 30.154C32.1546 27.7032 33.3144 24.7492 33.6488 21.632C33.9831 18.5148 33.4785 15.3611 32.1931 12.5338C30.9076 9.70655 28.8935 7.32067 26.3826 5.65079C23.8717 3.98091 20.966 3.0949 18 3.09473Z" fill="white"/>
</svg>
