<svg width="343" height="472" viewBox="0 0 343 472" fill="none" xmlns="http://www.w3.org/2000/svg">
<rect x="85.8921" y="79.917" width="171.217" height="163.575" fill="white"/>
<path d="M291.216 435.773L291.26 308.441L291.264 295.004L280.727 303.341C249.775 327.828 211.235 341.154 171.511 341.085L171.5 341.085L171.489 341.085C131.783 341.15 93.2602 327.832 62.3176 303.363L51.7789 295.028L51.7857 308.464L51.8536 442.298L51.8537 442.311C51.864 446.578 53.0622 450.755 55.3092 454.385C57.5557 458.015 60.7612 460.955 64.5669 462.898C68.372 464.84 72.6378 465.715 76.9025 465.433C81.1674 465.15 85.28 463.722 88.7927 461.292L88.7989 461.287L171.523 403.92L254.267 461.286C257.782 463.726 261.9 465.162 266.173 465.447C270.445 465.733 274.719 464.857 278.53 462.91C282.342 460.962 285.551 458.014 287.797 454.375C290.043 450.735 291.236 446.549 291.237 442.273L291.238 435.773H291.216ZM191.521 138.475L193.045 141.525L196.421 142.005L241.089 148.356L208.845 179.282L206.345 181.679L206.941 185.09L214.594 228.949L174.492 208.159L171.499 206.608L168.507 208.16L128.429 228.948L136.082 185.113L136.678 181.7L134.176 179.303L101.892 148.358L146.579 142.005L149.955 141.525L151.479 138.475L171.5 98.4022L191.521 138.475ZM242.334 147.161L242.333 147.162L242.334 147.161ZM171.472 96.8417L170.871 97.1424C170.869 97.1387 170.867 97.1351 170.865 97.1314L171.467 96.8323L171.488 96.8218L171.5 96.8157L171.563 96.7845L176.685 94.2373L171.552 96.8019L171.512 96.8218L171.5 96.8279L171.472 96.8417ZM336.5 169.14C336.5 147.768 332.227 126.608 323.927 106.868C315.627 87.1289 303.464 69.1997 288.138 54.1017C272.812 39.004 254.623 27.0328 234.611 18.8672C214.6 10.7016 193.155 6.5 171.5 6.5C149.845 6.5 128.4 10.7016 108.389 18.8672C88.3773 27.0328 70.188 39.004 54.862 54.1017C39.5358 69.1997 27.3731 87.1289 19.0732 106.868C10.7732 126.608 6.5 147.768 6.5 169.14C6.5 212.306 23.9079 253.685 54.862 284.178C85.8127 314.668 127.77 331.779 171.5 331.779C215.23 331.779 257.187 314.668 288.138 284.178C319.092 253.685 336.5 212.306 336.5 169.14Z" fill="#FFE600" stroke="white" stroke-width="13"/>
</svg>
