<svg width="24" height="20" viewBox="0 0 24 20" fill="none" xmlns="http://www.w3.org/2000/svg">
<path d="M9.30331 13.7676C9.30331 14.7881 8.77109 16.458 7.51132 16.458C6.25156 16.458 5.71933 14.7881 5.71933 13.7676C5.71933 12.7471 6.25156 11.0772 7.51132 11.0772C8.77109 11.0772 9.30331 12.7471 9.30331 13.7676V13.7676ZM23.6539 11.3018C23.6539 12.8594 23.4977 14.5098 22.7994 15.9404C20.9488 19.6807 15.8609 19.5928 12.2184 19.5928C8.51718 19.5928 3.12656 19.7246 1.20273 15.9404C0.489838 14.5244 0.2164 12.8594 0.2164 11.3018C0.2164 9.25588 0.895111 7.32228 2.24277 5.7549C1.98886 4.98341 1.86679 4.17287 1.86679 3.37209C1.86679 2.32228 2.10605 1.79494 2.57968 0.842789C4.7916 0.842789 6.20761 1.28224 7.89218 2.6006C9.3082 2.26369 10.7633 2.11232 12.2232 2.11232C13.5416 2.11232 14.8697 2.25392 16.149 2.56154C17.8092 1.25783 19.2252 0.842789 21.4127 0.842789C21.8912 1.79494 22.1256 2.32228 22.1256 3.37209C22.1256 4.17287 21.9986 4.96877 21.7496 5.7256C23.0924 7.30763 23.6539 9.25588 23.6539 11.3018V11.3018ZM20.5143 13.7676C20.5143 11.624 19.2105 9.73439 16.9254 9.73439C16.0025 9.73439 15.1187 9.90041 14.191 10.0274C13.4635 10.1397 12.7359 10.1836 11.9889 10.1836C11.2467 10.1836 10.5191 10.1397 9.78671 10.0274C8.87363 9.90041 7.98007 9.73439 7.05234 9.73439C4.76718 9.73439 3.46347 11.624 3.46347 13.7676C3.46347 18.0547 7.38925 18.7139 10.8072 18.7139H13.1607C16.5934 18.7139 20.5143 18.0596 20.5143 13.7676V13.7676ZM16.481 11.0772C15.2213 11.0772 14.6891 12.7471 14.6891 13.7676C14.6891 14.7881 15.2213 16.458 16.481 16.458C17.7408 16.458 18.273 14.7881 18.273 13.7676C18.273 12.7471 17.7408 11.0772 16.481 11.0772Z" fill="#F5F5F5"/>
</svg>
