<svg width="23" height="23" viewBox="0 0 23 23" fill="none" xmlns="http://www.w3.org/2000/svg">
<path d="M5.89413 22.5928H1.35898V7.9883H5.89413V22.5928ZM3.62412 5.99611C2.17392 5.99611 0.99765 4.79494 0.99765 3.34474C0.99765 2.64816 1.27437 1.98011 1.76692 1.48755C2.25948 0.994993 2.92753 0.718277 3.62412 0.718277C4.3207 0.718277 4.98875 0.994993 5.48131 1.48755C5.97386 1.98011 6.25058 2.64816 6.25058 3.34474C6.25058 4.79494 5.07382 5.99611 3.62412 5.99611ZM22.8678 22.5928H18.3424V15.4834C18.3424 13.7891 18.3082 11.6162 15.9845 11.6162C13.6266 11.6162 13.2652 13.457 13.2652 15.3613V22.5928H8.73496V7.9883H13.0846V9.98048H13.148C13.7535 8.83302 15.2325 7.62209 17.4391 7.62209C22.0289 7.62209 22.8727 10.6445 22.8727 14.5703V22.5928H22.8678Z" fill="#F5F5F5"/>
</svg>
