<svg width="20" height="22" viewBox="0 0 20 22" fill="none" xmlns="http://www.w3.org/2000/svg">
<path d="M10.2441 6.50229C10.5487 6.17467 10.5309 5.66328 10.1417 5.44531L0.838532 0.0693221C0.467886 -0.144352 0.0334569 0.170273 0.0328128 0.639017L0.0225652 8.0963C0.0185158 8.34345 0.140621 8.56524 0.333368 8.66783C3.21704 10.2876 7.61399 9.32323 10.2441 6.50229ZM18.7072 10.4451C11.5405 5.22176 5.77683 10.0617 0.323452 13.1848C0.134127 13.291 0.0114109 13.5124 0.0110771 13.7553L0.000876379 21.1785C0.000220536 21.6558 0.437508 21.9633 0.80503 21.7508C0.80503 21.7508 18.2751 11.7867 18.7094 11.536C19.1029 11.3108 19.1111 10.7355 18.7072 10.4451Z" fill="#F9F9F9"/>
</svg>
