<svg xmlns="http://www.w3.org/2000/svg" width="126.198" height="47.5" viewBox="0 0 126.198 47.5">
  <g id="Grupo_11066" data-name="Grupo 11066" transform="translate(0 0)">
    <path id="Caminho_906" data-name="Caminho 906" d="M1147.159,447.86a6.043,6.043,0,1,1,.188-8.547,6.023,6.023,0,0,1-.188,8.547m1.732-10.024a8.179,8.179,0,1,0-.255,11.568,8.189,8.189,0,0,0,.255-11.568" transform="translate(-1119.224 -419.736)" fill="#fff"/>
    <g id="Grupo_10885" data-name="Grupo 10885" transform="translate(-144.499 -23.75)">
      <path id="Caminho_905" data-name="Caminho 905" d="M1125.422,427.689a21.713,21.713,0,0,1-2.866,2.153c-.716-2.567.026-5.393,2.223-8.418.016-.023.032-.046.046-.07a17.975,17.975,0,0,0,3.119-13.683c.3-.715.594-1.447.88-2.2.544-1.434,1-2.787,1.378-3.99a21.7,21.7,0,0,1-4.781,26.209M1115,432.8c-.009-.024-.014-.049-.026-.073-1.926-4.057.635-8.682.661-8.729.011-.02.022-.04.032-.061l.13-.269a27.548,27.548,0,0,0,3.9-3.07,33.728,33.728,0,0,0,6.438-9.032,15.6,15.6,0,0,1-3.029,8.595,1.016,1.016,0,0,0-.072.108c-2.691,3.738-3.477,7.307-2.343,10.621A21.551,21.551,0,0,1,1115,432.8m-1.578-10.114q-.714.426-1.449.82l-.038.021q-.735.395-1.484.758l-.023.011a53.93,53.93,0,0,1-5.483,2.279h0l-.009,0-.494.173-.115.039-.375.128-.165.055-.317.105-.185.06-.294.1-.186.059-.285.09-.184.057-.283.087-.176.053-.288.086-.161.048-.3.088-.14.041-.322.091-.108.031-.376.1-.042.012c-.717.2-1.384.369-1.991.517l-.013,0-.346.084h0c-1.159.276-2.06.461-2.593.563l-.067.013-.057.011-.107.02-.031.006-.07.013-.023,0-.063.011-.008,0-.057.01h0l-.059.01c-.069.011-.135.018-.2.025-.034,0-.07.01-.1.013s-.069,0-.1,0c-.062,0-.124.008-.183.008h0c-.083,0-.164,0-.241-.011l-.069-.008c-.057-.007-.111-.015-.165-.025l-.065-.013a1.766,1.766,0,0,1-.2-.056h0a1.547,1.547,0,0,1-.183-.078l-.05-.027a1.182,1.182,0,0,1-.12-.074c-.015-.01-.031-.021-.045-.032a1.16,1.16,0,0,1-.139-.121,2.084,2.084,0,0,1-.311-1.889c0-.01.016-.077.042-.192l0-.014c.005-.023.011-.049.017-.075l.006-.028c0-.017.009-.037.013-.055.114-.492.349-1.457.716-2.742l.007-.024.083-.289.017-.058.1-.324c0-.011.006-.023.01-.034.147-.494.31-1.025.49-1.586l.026-.079q.053-.167.109-.336l.038-.114c.034-.1.069-.208.1-.313l.045-.133.1-.3.053-.154.1-.29.058-.165c.034-.1.068-.193.1-.29.02-.056.04-.112.06-.168l.109-.3.061-.166q.057-.155.117-.312l.059-.159.133-.349.048-.125c.056-.145.113-.292.171-.439l.017-.044q.1-.247.2-.5l0,0a53.857,53.857,0,0,1,2.518-5.377l.012-.022q.4-.734.826-1.455l.018-.03q.429-.72.889-1.42l.012-.019q.232-.352.472-.7a27.545,27.545,0,0,1,2.444-3.053l0,0q.2-.217.409-.428l.033-.033c.143-.145.288-.289.435-.43.182-.174.37-.345.559-.515l.113-.1q.278-.244.565-.481l.107-.087q.277-.226.562-.445l.059-.046q.3-.231.616-.455l.13-.093q.311-.221.628-.435l.09-.059q.3-.2.61-.4l.092-.059q.329-.207.664-.407l.13-.077q.341-.2.687-.4l.031-.017q.343-.193.689-.378l.1-.055q.351-.187.7-.366l.107-.054q.732-.369,1.473-.709l.095-.044q.369-.169.739-.331l.057-.025q.763-.333,1.522-.636l.073-.029a67.248,67.248,0,0,1,7.986-2.586h0q.33-.086.641-.163l.023-.006q.309-.077.6-.145h0c1.888-.451,3.094-.655,3.136-.662q.157-.026.3-.038c.043,0,.083,0,.125-.005s.11-.007.163-.007c.083,0,.164,0,.242.011l.068.008c.057.007.112.015.165.025l.065.013a1.89,1.89,0,0,1,.2.055h0a1.533,1.533,0,0,1,.182.078l.051.028a1.226,1.226,0,0,1,.119.073c.016.01.032.021.046.032a1.161,1.161,0,0,1,.137.12h0a2.082,2.082,0,0,1,.311,1.889c-.01.047-.322,1.5-.975,3.715l0,.009a67.694,67.694,0,0,1-3.122,8.5l-.038.085q-.165.366-.337.732l-.012.024q-.17.361-.347.722l-.031.064q-.175.357-.358.714l-.054.105q-.369.718-.767,1.428l-.062.11q-.193.342-.393.681l-.066.111q-.2.336-.4.668l-.018.029q-.209.336-.426.667l-.085.13q-.214.324-.434.642l-.067.094q-.207.3-.422.59l-.062.086q-.227.308-.462.608l-.1.128c-.159.2-.318.4-.482.595l-.051.06q-.231.274-.468.54l-.092.1q-.249.277-.5.543l-.107.11c-.177.182-.356.362-.538.537h0c-.146.14-.3.278-.448.415l-.035.031a27.713,27.713,0,0,1-4.318,3.136l-.026.016m-2.408,10.484a21.863,21.863,0,0,1-4.46-.461c-.05-.172-.1-.344-.162-.514a9.1,9.1,0,0,1,.2-3.995,51.418,51.418,0,0,0,6.2-2.76,11.526,11.526,0,0,0,.06,7.65q-.919.078-1.841.08m-6.754-1.073a21.559,21.559,0,0,1-4.135-1.846c1.221-.325,2.6-.724,4.058-1.206l.117-.04a11.141,11.141,0,0,0-.04,3.092m-14.134-14.753a10.585,10.585,0,0,0,1.888.164,11.825,11.825,0,0,0,1.214-.064l-.047.119c-.545,1.439-1,2.8-1.381,4a21.379,21.379,0,0,1-1.674-4.221m-.753-7.069c.03-.525.085-1.045.152-1.562a10.1,10.1,0,0,0,4.19.868,13.653,13.653,0,0,0,3.45-.467,51.377,51.377,0,0,0-3.031,6.074,9.087,9.087,0,0,1-3.994.024c-.172-.069-.348-.131-.524-.19a21.861,21.861,0,0,1-.243-4.746m2.689-9.294a9.216,9.216,0,0,0,3.4.65,13.474,13.474,0,0,0,7.316-2.515,1.049,1.049,0,0,0,.116-.07,15.61,15.61,0,0,1,8.729-2.649,33.711,33.711,0,0,0-9.314,6.035,27.578,27.578,0,0,0-3.241,3.761l-.272.116c-.021.009-.042.019-.063.03-.047.024-4.775,2.382-8.749.276-.025-.013-.052-.021-.078-.032a21.432,21.432,0,0,1,2.155-5.6m4.522-5.637a21.507,21.507,0,0,1,14.39-5.495q.631,0,1.267.036a21.559,21.559,0,0,1,9.644,2.891c-1.223.325-2.6.725-4.064,1.208-.762.251-1.5.511-2.224.778a17.975,17.975,0,0,0-13.812,2.511c-.025.014-.05.029-.074.045-3.121,2.064-5.98,2.681-8.515,1.849a21.813,21.813,0,0,1,3.387-3.822m34.425,3.362c.384-1.424.569-2.294.573-2.313a4.068,4.068,0,0,0-.846-3.763,3.714,3.714,0,0,0-2.791-1.09,5.746,5.746,0,0,0-.93.079c-.02,0-.894.15-2.326.47A23.762,23.762,0,0,0,1091,424.33c-.384,1.422-.568,2.291-.572,2.309a4.069,4.069,0,0,0,.846,3.763,3.714,3.714,0,0,0,2.791,1.09,5.757,5.757,0,0,0,.931-.079c.02,0,.9-.15,2.334-.472a23.756,23.756,0,0,0,33.684-32.232" transform="translate(-942.75 -364.012)" fill="#fff"/>
      <path id="Caminho_907" data-name="Caminho 907" d="M1383.767,445.728c0,3.46-1.232,4.915-3.8,4.915s-3.8-1.455-3.8-4.915v-4.182c0-3.46,1.232-4.915,3.8-4.915s3.8,1.455,3.8,4.915Zm-3.8-12.361c-4.325,0-7.471,2.411-7.471,8.179v4.182c0,5.767,3.146,8.178,7.471,8.178s7.471-2.411,7.471-8.178v-4.182c0-5.768-3.146-8.179-7.471-8.179" transform="translate(-1134.553 -394.677)" fill="#fff"/>
      <path id="Caminho_908" data-name="Caminho 908" d="M1282.654,441.06c0,2.1-1.261,3.136-4,3.136-.12,0-.318.006-.553,0h-1.872v-6.321h2.425c2.493,0,4,.839,4,3.041Zm-4-6.291H1273.2a.526.526,0,0,0-.524.524v18.639a.526.526,0,0,0,.524.524h2.53a.5.5,0,0,0,.5-.524v-6.645h2.425c4.136,0,7.274-1.586,7.274-6.226v-.235c0-4.64-3.406-6.056-7.274-6.056" transform="translate(-1067.436 -395.62)" fill="#fff"/>
      <path id="Caminho_909" data-name="Caminho 909" d="M1325.879,437.875h2.425c2.493,0,3.9.839,3.9,3.041v.144c0,2.1-1.169,3.044-3.9,3.044h-2.425Zm6.488,8.5c1.961-.784,3.212-2.385,3.212-5.313v-.235c0-4.64-3.406-6.056-7.274-6.056h-5.453a.526.526,0,0,0-.524.524v18.639a.526.526,0,0,0,.524.524h2.53a.5.5,0,0,0,.5-.524v-6.921h2.425q.205,0,.407,0l3.735,6.926c.131.262.236.524.524.524h3.2a.29.29,0,0,0,.315-.315.349.349,0,0,0-.053-.209Z" transform="translate(-1100.82 -395.62)" fill="#fff"/>
      <path id="Caminho_910" data-name="Caminho 910" d="M1429.585,445.852l1.8-7.6c.079-.315.157-.419.419-.419s.341.1.419.419l1.8,7.6Zm10.158,7.838-4.3-16.528a3.819,3.819,0,0,0-7.287,0l-4.3,16.528a1.127,1.127,0,0,1-.026.131.448.448,0,0,0,.472.446h2.779a.554.554,0,0,0,.5-.446l1.207-4.981h6.029l1.206,4.981a.555.555,0,0,0,.5.446h2.779a.448.448,0,0,0,.472-.446,1.127,1.127,0,0,1-.026-.131" transform="translate(-1169.072 -395.431)" fill="#fff"/>
    </g>
  </g>
</svg>
