<svg width="33" height="33" viewBox="0 0 33 33" fill="none" xmlns="http://www.w3.org/2000/svg">
<g clip-path="url(#clip0_1191_2)" filter="url(#filter0_d_1191_2)">
<path d="M16.6777 15.3708C18.3346 15.3708 19.6777 14.0277 19.6777 12.3708C19.6777 10.714 18.3346 9.37082 16.6777 9.37082C15.0209 9.37082 13.6777 10.714 13.6777 12.3708C13.6777 14.0277 15.0209 15.3708 16.6777 15.3708Z" stroke="white" stroke-width="2" stroke-linecap="round" stroke-linejoin="round"/>
<path d="M24.0777 15.3708C23.9446 15.6724 23.9049 16.007 23.9637 16.3314C24.0225 16.6558 24.1772 16.9551 24.4077 17.1908L24.4677 17.2508C24.6537 17.4366 24.8012 17.6571 24.9019 17.8999C25.0025 18.1427 25.0543 18.403 25.0543 18.6658C25.0543 18.9287 25.0025 19.1889 24.9019 19.4317C24.8012 19.6745 24.6537 19.8951 24.4677 20.0808C24.282 20.2668 24.0614 20.4143 23.8186 20.5149C23.5758 20.6156 23.3156 20.6674 23.0527 20.6674C22.7899 20.6674 22.5296 20.6156 22.2869 20.5149C22.0441 20.4143 21.8235 20.2668 21.6377 20.0808L21.5777 20.0208C21.3421 19.7903 21.0427 19.6356 20.7183 19.5768C20.3939 19.518 20.0594 19.5577 19.7577 19.6908C19.462 19.8176 19.2097 20.0281 19.032 20.2964C18.8544 20.5646 18.759 20.879 18.7577 21.2008V21.3708C18.7577 21.9013 18.547 22.41 18.1719 22.785C17.7969 23.1601 17.2882 23.3708 16.7577 23.3708C16.2273 23.3708 15.7186 23.1601 15.3435 22.785C14.9684 22.41 14.7577 21.9013 14.7577 21.3708V21.2808C14.75 20.9498 14.6429 20.6288 14.4502 20.3595C14.2576 20.0902 13.9885 19.8851 13.6777 19.7708C13.3761 19.6377 13.0415 19.598 12.7171 19.6568C12.3928 19.7156 12.0934 19.8703 11.8577 20.1008L11.7977 20.1608C11.612 20.3468 11.3914 20.4943 11.1486 20.5949C10.9058 20.6956 10.6456 20.7474 10.3827 20.7474C10.1199 20.7474 9.85965 20.6956 9.61685 20.5949C9.37406 20.4943 9.15348 20.3468 8.96773 20.1608C8.78178 19.9751 8.63426 19.7545 8.53361 19.5117C8.43297 19.2689 8.38116 19.0087 8.38116 18.7458C8.38116 18.483 8.43297 18.2227 8.53361 17.9799C8.63426 17.7371 8.78178 17.5166 8.96773 17.3308L9.02773 17.2708C9.25827 17.0351 9.41292 16.7358 9.47174 16.4114C9.53056 16.087 9.49085 15.7524 9.35773 15.4508C9.23097 15.155 9.02049 14.9028 8.7522 14.7251C8.48391 14.5475 8.16952 14.4521 7.84773 14.4508H7.67773C7.1473 14.4508 6.63859 14.2401 6.26352 13.865C5.88845 13.49 5.67773 12.9813 5.67773 12.4508C5.67773 11.9204 5.88845 11.4117 6.26352 11.0366C6.63859 10.6615 7.1473 10.4508 7.67773 10.4508H7.76773C8.09873 10.4431 8.41974 10.3359 8.68903 10.1433C8.95833 9.95072 9.16345 9.68155 9.27773 9.37082C9.41085 9.0692 9.45056 8.73463 9.39174 8.41023C9.33292 8.08584 9.17827 7.7865 8.94773 7.55082L8.88773 7.49082C8.70178 7.30507 8.55426 7.0845 8.45361 6.8417C8.35297 6.5989 8.30116 6.33865 8.30116 6.07582C8.30116 5.81299 8.35297 5.55273 8.45361 5.30994C8.55426 5.06714 8.70178 4.84657 8.88773 4.66082C9.07348 4.47487 9.29406 4.32735 9.53685 4.2267C9.77965 4.12605 10.0399 4.07425 10.3027 4.07425C10.5656 4.07425 10.8258 4.12605 11.0686 4.2267C11.3114 4.32735 11.532 4.47487 11.7177 4.66082L11.7777 4.72082C12.0134 4.95136 12.3128 5.106 12.6371 5.16482C12.9615 5.22364 13.2961 5.18393 13.5977 5.05082H13.6777C13.9735 4.92406 14.2258 4.71357 14.4034 4.44528C14.5811 4.17699 14.6765 3.86261 14.6777 3.54082V3.37082C14.6777 2.84039 14.8884 2.33168 15.2635 1.95661C15.6386 1.58153 16.1473 1.37082 16.6777 1.37082C17.2082 1.37082 17.7169 1.58153 18.0919 1.95661C18.467 2.33168 18.6777 2.84039 18.6777 3.37082V3.46082C18.679 3.78261 18.7744 4.09699 18.952 4.36528C19.1297 4.63357 19.382 4.84406 19.6777 4.97082C19.9794 5.10393 20.3139 5.14364 20.6383 5.08482C20.9627 5.026 21.2621 4.87136 21.4977 4.64082L21.5577 4.58082C21.7435 4.39487 21.9641 4.24735 22.2069 4.1467C22.4497 4.04605 22.7099 3.99425 22.9727 3.99425C23.2356 3.99425 23.4958 4.04605 23.7386 4.1467C23.9814 4.24735 24.202 4.39487 24.3877 4.58082C24.5737 4.76657 24.7212 4.98714 24.8219 5.22994C24.9225 5.47273 24.9743 5.73299 24.9743 5.99582C24.9743 6.25865 24.9225 6.5189 24.8219 6.7617C24.7212 7.0045 24.5737 7.22507 24.3877 7.41082L24.3277 7.47082C24.0972 7.7065 23.9425 8.00584 23.8837 8.33023C23.8249 8.65463 23.8646 8.9892 23.9977 9.29082V9.37082C24.1245 9.66659 24.335 9.91884 24.6033 10.0965C24.8716 10.2742 25.1859 10.3695 25.5077 10.3708H25.6777C26.2082 10.3708 26.7169 10.5815 27.0919 10.9566C27.467 11.3317 27.6777 11.8404 27.6777 12.3708C27.6777 12.9013 27.467 13.41 27.0919 13.785C26.7169 14.1601 26.2082 14.3708 25.6777 14.3708H25.5877C25.2659 14.3721 24.9516 14.4675 24.6833 14.6451C24.415 14.8228 24.2045 15.075 24.0777 15.3708V15.3708Z" stroke="white" stroke-width="2" stroke-linecap="round" stroke-linejoin="round"/>
</g>
<defs>
<filter id="filter0_d_1191_2" x="0.677734" y="0.370819" width="32" height="32" filterUnits="userSpaceOnUse" color-interpolation-filters="sRGB">
<feFlood flood-opacity="0" result="BackgroundImageFix"/>
<feColorMatrix in="SourceAlpha" type="matrix" values="0 0 0 0 0 0 0 0 0 0 0 0 0 0 0 0 0 0 127 0" result="hardAlpha"/>
<feOffset dy="4"/>
<feGaussianBlur stdDeviation="2"/>
<feComposite in2="hardAlpha" operator="out"/>
<feColorMatrix type="matrix" values="0 0 0 0 0 0 0 0 0 0 0 0 0 0 0 0 0 0 0.25 0"/>
<feBlend mode="normal" in2="BackgroundImageFix" result="effect1_dropShadow_1191_2"/>
<feBlend mode="normal" in="SourceGraphic" in2="effect1_dropShadow_1191_2" result="shape"/>
</filter>
<clipPath id="clip0_1191_2">
<rect width="24" height="24" fill="white" transform="translate(4.67773 0.370819)"/>
</clipPath>
</defs>
</svg>
